<svg width="3095" height="2333" viewBox="0 0 3095 2333" fill="none" xmlns="http://www.w3.org/2000/svg">
<rect width="3095" height="2333" fill="#1E1E1E"/>
<rect width="3095" height="2333" fill="white"/>
<path id="cell-0" class="cell" d="M892.514 1407L1354.51 1575L1156.01 1624L892.514 1575V1407Z" fill="#EF7D00"/>
<path id="cell-1" class="cell" d="M1137.51 1575H1354.51L1398.51 1591.5L1374.51 1675H1137.51V1575Z" fill="#EF7D00"/>
<path id="cell-2" class="cell" d="M881.514 1615L1101.51 1653.5V1779H881.514V1615Z" fill="#8B1D82"/>
<path id="cell-3" class="cell" d="M947.514 1767H1101.51V1992L961.014 1978.5L881.514 1779L947.514 1767Z" fill="#8B1D82"/>
<path id="cell-4" class="cell" d="M652.014 1813H854.514L919.514 1973L822.014 1946L724.014 1887.5L652.014 1813Z" fill="#4D1D82"/>
<path id="cell-5" class="cell" d="M1137.51 1713H1363.51L1284.01 2047L1216.51 2078.5L1137.51 2047V1713Z" fill="#3A3A3A"/>
<path id="cell-6" class="cell" d="M1439.51 1609L1699.51 1709V1788H1396.01L1439.51 1609Z" fill="#8B1D82"/>
<path id="cell-7" class="cell" d="M1344.51 1983L1626.01 1945.06L1691.01 1817.18H1385.01L1344.51 1983Z" fill="#4D1D82"/>
<path id="cell-8" class="cell" d="M1669.51 1936.5L1744.51 1914V1816.86V1724.5L1731.51 1720.5V1816.86L1669.51 1936.5Z" fill="#CF022B"/>
<path id="cell-9" class="cell" d="M1743.01 1724L2008.01 1804L1743.01 1914.5V1724Z" fill="#CF022B"/>
<path id="cell-10" class="cell" d="M645.514 1423L682.514 1391.5L732.514 1377.5L814.514 1387L919.514 1412L856.514 1397V1526H608.514L619.514 1471.5L645.514 1423Z" fill="#BCBCBC"/>
<circle cx="615.514" cy="1334" r="149" fill="#BCBCBC"/>
<path id="cell-11" class="cell" d="M606.014 1557H844.514V1779H633.514L594.014 1673.5L606.014 1557Z" fill="#CF022B"/>
<path id="cell-12" class="cell" d="M2168.01 1467H2345.51V1657H2173.51L2195.01 1559L2168.01 1467Z" fill="#CF022B"/>
<path id="cell-13" class="cell" d="M2567.51 1671C2567.51 1693.72 2562.39 1716.21 2552.44 1737.2C2542.49 1758.19 2527.9 1777.26 2509.52 1793.33C2491.13 1809.39 2469.31 1822.14 2445.28 1830.83C2421.26 1839.53 2395.51 1844 2369.51 1844L2369.51 1671H2567.51Z" fill="#4D1D82"/>
<path id="cell-14" class="cell" d="M2159.51 1690H2333.51V1844L2047.51 1800.5L2159.51 1690Z" fill="#EF7D00"/>
<path id="cell-15" class="cell" d="M2074.51 1259.5L2345.51 1374V1442H2158.01L2074.51 1259.5Z" fill="#EF7D00"/>
<path id="cell-16" class="cell" d="M2191.51 1058L1729.51 890H2191.51V1058Z" fill="#CF022B"/>
<rect x="1946.51" y="890" width="217" height="100" transform="rotate(-180 1946.51 890)" fill="#CF022B"/>
<rect x="2202.51" y="854" width="220" height="168" transform="rotate(-180 2202.51 854)" fill="#4D1D82"/>
<path id="cell-17" class="cell" d="M2164.51 652H1982.51V473L2396.01 492L2164.51 652Z" fill="#EF7D00"/>
<path id="cell-18" class="cell" d="M2499.99 652H2164.49V492H2395.99L2499.99 652Z" fill="#EF7D00"/>
<path id="cell-19" class="cell" d="M1946.51 752H1729.51V473H1946.51V752Z" fill="#8B1D82"/>
<path id="cell-20" class="cell" d="M1692.51 874L1384.51 756V677L1692.51 679.506V874Z" fill="#EF7D00"/>
<path id="cell-21" class="cell" d="M1692.51 428.568L1571.51 368L1451.51 435.732V650L1692.51 647.239V428.568Z" fill="#3A3A3A"/>
<path id="cell-22" class="cell" d="M2378.01 1417.5L2485.01 1511.5L2559.01 1628H2378.01V1417.5Z" fill="#3A3A3A"/>
<path id="cell-23" class="cell" d="M2597.98 1600.83L2558.48 1456.33L2420.98 1374.83L2377.99 1417.5L2558.48 1628.33L2597.98 1600.83Z" fill="#3A3A3A"/>
<path id="cell-24" class="cell" d="M1414.51 528.5L1339.51 551V648.142H1414.51V528.5Z" fill="#4D1D82"/>
<path id="cell-25" class="cell" d="M1341.01 741L1069.51 657.5L1341.01 550.5V741Z" fill="#4D1D82"/>
<path id="cell-26" class="cell" d="M2520.99 908H2239.49V686H2520.99L2552.49 796.5L2520.99 908Z" fill="#CF022B"/>
<path id="cell-27" class="cell" d="M2438.49 1042L2401.49 1073.5L2351.49 1087.5L2269.49 1078L2164.49 1053L2227.49 1068V939H2475.49L2464.49 993.5L2438.49 1042Z" fill="#BCBCBC"/>
<path id="cell-28" class="cell" d="M2475.5 1297.5L2275.99 1078.5L2464.49 993.5L2680.99 1176L2680.99 1176L2475.5 1297.5Z" fill="#BCBCBC"/>
<path id="cell-29" class="cell" d="M916.264 987H738.264V808H916.264V987Z" fill="#EF7D00"/>
<path d="M656.166 558.479L522.014 594.86L453.857 727.216L516.513 793.999L714.511 621L656.166 558.479Z" fill="#3A3A3A"/>
<path d="M516.514 794C516.514 771.281 521.635 748.785 531.586 727.796C541.536 706.806 556.121 687.735 574.507 671.671C592.893 655.606 614.72 642.863 638.742 634.169C662.765 625.475 688.512 621 714.514 621L714.514 794L516.514 794Z" fill="#3A3A3A"/>
<path d="M924.514 775H750.514V621L1032.51 659.5L924.514 775Z" fill="#8B1D82"/>
<path d="M706.014 1047.5L599.014 953.5L525.014 837H706.014V1047.5Z" fill="#8B1D82"/>
<path d="M1022.51 1170L738.514 1073.5V1023H926.014L1022.51 1170Z" fill="#CF022B"/>
<circle cx="1107.51" cy="1138" r="16" fill="#BCBCBC"/>
<circle cx="1155.51" cy="1145" r="16" fill="#BCBCBC"/>
<circle cx="1203.51" cy="1154" r="16" fill="#BCBCBC"/>
<ellipse cx="1900.51" cy="1270.5" rx="16.5" ry="16" fill="#BCBCBC"/>
<circle cx="1949.01" cy="1277.5" r="16" fill="#BCBCBC"/>
<circle cx="1998.01" cy="1286.5" r="16" fill="#BCBCBC"/>
<ellipse cx="1508.01" cy="1206" rx="16.5" ry="16" fill="#BCBCBC"/>
<circle cx="1556.51" cy="1213" r="16" fill="#BCBCBC"/>
<circle cx="1605.51" cy="1222" r="16" fill="#BCBCBC"/>
<path d="M1286.05 1079L1468.51 1111L1445.09 1202.43L1468.51 1282.5L1286.05 1249.91L1262.51 1159.34L1286.05 1079Z" fill="#8B1D82"/>
<path d="M1687.05 1152L1869.51 1184L1846.09 1275.43L1869.51 1355.5L1687.05 1322.91L1663.51 1232.34L1687.05 1152Z" fill="#4D1D82"/>
<path d="M2446.01 1009.5L2646.51 1176L2484.51 1269.5L2303.51 1077.5L2446.01 1009.5Z" fill="white"/>
<circle cx="615.514" cy="1334" r="111" fill="white"/>
<path d="M688.159 1484.53C688.159 1486.53 687.931 1488.53 687.476 1490.51C687.043 1492.49 686.405 1494.39 685.562 1496.22C684.718 1498.04 683.682 1499.74 682.451 1501.31C681.243 1502.88 679.854 1504.25 678.281 1505.41C676.709 1506.57 674.977 1507.48 673.086 1508.15C671.217 1508.81 669.201 1509.14 667.036 1509.14C664.849 1509.14 662.809 1508.81 660.918 1508.15C659.027 1507.48 657.295 1506.57 655.723 1505.41C654.173 1504.25 652.783 1502.88 651.553 1501.31C650.322 1499.74 649.285 1498.04 648.442 1496.22C647.599 1494.39 646.95 1492.49 646.494 1490.51C646.061 1488.5 645.845 1486.51 645.845 1484.53C645.845 1482.54 646.061 1480.55 646.494 1478.55C646.95 1476.54 647.599 1474.63 648.442 1472.8C649.285 1470.98 650.322 1469.28 651.553 1467.71C652.783 1466.12 654.173 1464.74 655.723 1463.58C657.295 1462.41 659.027 1461.5 660.918 1460.84C662.832 1460.18 664.871 1459.85 667.036 1459.85C669.201 1459.85 671.217 1460.18 673.086 1460.84C674.977 1461.5 676.709 1462.41 678.281 1463.58C679.854 1464.74 681.243 1466.12 682.451 1467.71C683.682 1469.28 684.718 1470.98 685.562 1472.8C686.405 1474.63 687.043 1476.54 687.476 1478.55C687.931 1480.55 688.159 1482.54 688.159 1484.53ZM673.735 1485.55C673.735 1484.55 673.599 1483.43 673.325 1482.2C673.052 1480.97 672.63 1479.82 672.061 1478.75C671.491 1477.68 670.762 1476.78 669.873 1476.05C668.984 1475.32 667.925 1474.96 666.694 1474.96C665.441 1474.96 664.37 1475.32 663.481 1476.05C662.593 1476.78 661.852 1477.68 661.26 1478.75C660.69 1479.82 660.269 1480.97 659.995 1482.2C659.722 1483.43 659.585 1484.55 659.585 1485.55C659.585 1486.56 659.722 1487.67 659.995 1488.9C660.269 1490.13 660.69 1491.28 661.26 1492.35C661.852 1493.43 662.593 1494.33 663.481 1495.05C664.37 1495.78 665.441 1496.15 666.694 1496.15C667.925 1496.15 668.984 1495.78 669.873 1495.05C670.762 1494.33 671.491 1493.43 672.061 1492.35C672.63 1491.28 673.052 1490.13 673.325 1488.9C673.599 1487.67 673.735 1486.56 673.735 1485.55Z" fill="#1E1E1E"/>
<path d="M655.033 1579.85L653.051 1628.45L638.148 1627.77L638.969 1595.44L633.5 1599.2L628.373 1587.51L639.516 1579.17L655.033 1579.85Z" fill="white"/>
<path d="M937.263 1681.77C937.263 1684.8 936.773 1687.44 935.793 1689.67C934.836 1691.88 933.492 1693.72 931.76 1695.21C930.028 1696.66 927.954 1697.76 925.539 1698.49C923.146 1699.19 920.515 1699.55 917.644 1699.55C916.345 1699.55 915.012 1699.42 913.645 1699.17C912.277 1698.92 910.922 1698.58 909.577 1698.15C908.233 1697.71 906.923 1697.2 905.646 1696.61C904.393 1696.01 903.22 1695.38 902.126 1694.69L903.425 1680.95C904.291 1681.55 905.259 1682.12 906.33 1682.66C907.401 1683.19 908.506 1683.66 909.646 1684.1C910.808 1684.51 911.97 1684.84 913.132 1685.09C914.317 1685.34 915.456 1685.46 916.55 1685.46C917.188 1685.46 917.837 1685.42 918.498 1685.33C919.182 1685.21 919.797 1685.02 920.344 1684.75C920.891 1684.47 921.335 1684.09 921.677 1683.58C922.041 1683.08 922.224 1682.43 922.224 1681.64C922.224 1681.14 921.996 1680.67 921.54 1680.24C921.084 1679.8 920.537 1679.44 919.899 1679.14C919.261 1678.82 918.601 1678.58 917.917 1678.42C917.233 1678.24 916.664 1678.15 916.208 1678.15C915.889 1678.15 915.502 1678.17 915.046 1678.22C914.613 1678.24 914.169 1678.29 913.713 1678.36C913.257 1678.42 912.813 1678.53 912.38 1678.66C911.97 1678.78 911.651 1678.93 911.423 1679.11L911.628 1669.33C912.015 1669.38 912.38 1669.41 912.722 1669.43C913.063 1669.46 913.428 1669.47 913.815 1669.47C914.613 1669.47 915.479 1669.4 916.413 1669.26C917.347 1669.1 918.213 1668.84 919.011 1668.48C919.808 1668.09 920.469 1667.57 920.993 1666.91C921.54 1666.24 921.813 1665.39 921.813 1664.34C921.813 1663.59 921.608 1662.99 921.198 1662.53C920.788 1662.05 920.275 1661.69 919.66 1661.44C919.068 1661.19 918.418 1661.01 917.712 1660.92C917.006 1660.83 916.368 1660.79 915.798 1660.79C913.952 1660.79 912.129 1661.11 910.329 1661.74C908.552 1662.38 906.979 1663.32 905.612 1664.55L902.741 1652.11C904.838 1650.4 907.219 1649.1 909.885 1648.21C912.574 1647.3 915.274 1646.84 917.985 1646.84C920.469 1646.84 922.839 1647.21 925.095 1647.94C927.373 1648.64 929.379 1649.7 931.11 1651.11C932.842 1652.5 934.221 1654.22 935.246 1656.28C936.271 1658.33 936.784 1660.7 936.784 1663.38C936.784 1664.16 936.67 1664.95 936.442 1665.74C936.215 1666.54 935.907 1667.32 935.52 1668.07C935.132 1668.82 934.676 1669.53 934.152 1670.19C933.628 1670.82 933.07 1671.38 932.478 1671.86C933.435 1672.29 934.221 1672.88 934.836 1673.6C935.451 1674.33 935.941 1675.14 936.306 1676.03C936.67 1676.92 936.921 1677.87 937.058 1678.87C937.194 1679.85 937.263 1680.82 937.263 1681.77Z" fill="white"/>
<path d="M1194.84 1763.77C1194.84 1766.74 1194.31 1769.31 1193.24 1771.5C1192.19 1773.69 1190.75 1775.5 1188.93 1776.93C1187.11 1778.37 1184.97 1779.44 1182.5 1780.15C1180.04 1780.85 1177.41 1781.21 1174.61 1781.21C1173.26 1781.21 1171.94 1781.11 1170.64 1780.93C1169.35 1780.73 1168.06 1780.46 1166.78 1780.15C1165.53 1779.8 1164.28 1779.42 1163.02 1778.98C1161.79 1778.55 1160.55 1778.08 1159.3 1777.58L1160.6 1763.98C1161.42 1764.43 1162.29 1764.86 1163.23 1765.24C1164.16 1765.63 1165.12 1765.96 1166.1 1766.23C1167.1 1766.51 1168.1 1766.72 1169.11 1766.88C1170.13 1767.04 1171.12 1767.12 1172.08 1767.12C1172.65 1767.12 1173.34 1767.08 1174.17 1766.99C1174.99 1766.87 1175.77 1766.68 1176.52 1766.41C1177.28 1766.11 1177.91 1765.72 1178.44 1765.24C1178.98 1764.74 1179.26 1764.09 1179.26 1763.29C1179.26 1762.54 1179.04 1761.89 1178.61 1761.35C1178.2 1760.8 1177.65 1760.36 1176.97 1760.01C1176.31 1759.65 1175.56 1759.36 1174.71 1759.16C1173.87 1758.95 1173.01 1758.79 1172.15 1758.68C1171.31 1758.57 1170.5 1758.5 1169.72 1758.48C1168.97 1758.45 1168.34 1758.44 1167.84 1758.44C1166.82 1758.44 1165.77 1758.49 1164.7 1758.58C1163.65 1758.67 1162.62 1758.85 1161.62 1759.12L1162.99 1731.51L1190.67 1730.76L1191.43 1745.04L1174.27 1744.09L1173.93 1750.17C1174.95 1749.92 1175.98 1749.74 1177 1749.62C1178.03 1749.49 1179.05 1749.42 1180.08 1749.42C1182.15 1749.42 1184.08 1749.76 1185.85 1750.44C1187.65 1751.1 1189.22 1752.06 1190.54 1753.31C1191.88 1754.57 1192.93 1756.08 1193.68 1757.86C1194.46 1759.61 1194.84 1761.59 1194.84 1763.77Z" fill="white"/>
<path d="M1791.01 1793.89C1791.01 1795.74 1790.76 1797.39 1790.25 1798.85C1789.75 1800.31 1789.06 1801.61 1788.17 1802.75C1787.3 1803.86 1786.27 1804.82 1785.06 1805.62C1783.87 1806.41 1782.56 1807.07 1781.13 1807.6C1779.72 1808.1 1778.22 1808.48 1776.65 1808.73C1775.08 1808.95 1773.48 1809.07 1771.87 1809.07C1769.56 1809.07 1767.29 1808.76 1765.03 1808.15C1762.8 1807.53 1760.78 1806.6 1758.98 1805.34C1757.2 1804.07 1755.76 1802.48 1754.64 1800.59C1753.54 1798.7 1753 1796.47 1753 1793.89C1753 1792.84 1753.12 1791.8 1753.37 1790.75C1753.62 1789.68 1753.99 1788.66 1754.47 1787.71C1754.95 1786.75 1755.55 1785.88 1756.28 1785.11C1757.01 1784.33 1757.85 1783.68 1758.81 1783.16C1757.3 1781.82 1756.18 1780.28 1755.42 1778.55C1754.67 1776.79 1754.3 1774.91 1754.3 1772.91C1754.3 1770.56 1754.81 1768.51 1755.83 1766.75C1756.88 1764.98 1758.24 1763.5 1759.9 1762.31C1761.59 1761.1 1763.48 1760.2 1765.58 1759.61C1767.67 1759 1769.77 1758.69 1771.87 1758.69C1773.26 1758.69 1774.65 1758.82 1776.04 1759.1C1777.45 1759.37 1778.8 1759.77 1780.1 1760.29C1781.4 1760.82 1782.61 1761.48 1783.73 1762.28C1784.86 1763.07 1785.84 1764.01 1786.67 1765.08C1787.51 1766.13 1788.17 1767.31 1788.65 1768.63C1789.13 1769.93 1789.37 1771.36 1789.37 1772.91C1789.37 1774.91 1788.99 1776.79 1788.24 1778.55C1787.49 1780.28 1786.36 1781.82 1784.85 1783.16C1787.04 1784.3 1788.61 1785.77 1789.57 1787.57C1790.53 1789.37 1791.01 1791.48 1791.01 1793.89ZM1777.54 1776.19C1777.54 1775.44 1777.37 1774.76 1777.03 1774.17C1776.71 1773.56 1776.27 1773.03 1775.73 1772.6C1775.18 1772.17 1774.57 1771.84 1773.88 1771.61C1773.22 1771.38 1772.55 1771.27 1771.87 1771.27C1771.16 1771.27 1770.46 1771.38 1769.78 1771.61C1769.1 1771.84 1768.48 1772.17 1767.93 1772.6C1767.39 1773.03 1766.94 1773.56 1766.6 1774.17C1766.28 1774.76 1766.12 1775.44 1766.12 1776.19C1766.12 1776.94 1766.28 1777.62 1766.6 1778.24C1766.94 1778.83 1767.39 1779.33 1767.93 1779.74C1768.48 1780.15 1769.1 1780.47 1769.78 1780.7C1770.46 1780.93 1771.16 1781.04 1771.87 1781.04C1772.55 1781.04 1773.22 1780.93 1773.88 1780.7C1774.57 1780.47 1775.18 1780.15 1775.73 1779.74C1776.27 1779.33 1776.71 1778.83 1777.03 1778.24C1777.37 1777.62 1777.54 1776.94 1777.54 1776.19ZM1777.47 1792.25C1777.47 1791.5 1777.3 1790.83 1776.96 1790.24C1776.64 1789.62 1776.22 1789.11 1775.69 1788.7C1775.17 1788.29 1774.57 1787.97 1773.88 1787.74C1773.22 1787.51 1772.55 1787.4 1771.87 1787.4C1771.18 1787.4 1770.5 1787.51 1769.81 1787.74C1769.15 1787.97 1768.55 1788.29 1768 1788.7C1767.46 1789.11 1767.01 1789.62 1766.67 1790.24C1766.35 1790.83 1766.19 1791.5 1766.19 1792.25C1766.19 1792.98 1766.35 1793.64 1766.67 1794.23C1767.01 1794.83 1767.46 1795.33 1768 1795.74C1768.55 1796.15 1769.15 1796.47 1769.81 1796.7C1770.5 1796.92 1771.18 1797.04 1771.87 1797.04C1772.55 1797.04 1773.22 1796.92 1773.88 1796.7C1774.57 1796.47 1775.17 1796.15 1775.69 1795.74C1776.22 1795.33 1776.64 1794.83 1776.96 1794.23C1777.3 1793.64 1777.47 1792.98 1777.47 1792.25Z" fill="white"/>
<path d="M1484.82 1661.4C1482.52 1667.85 1480.43 1673.7 1478.56 1678.94C1477.77 1681.17 1476.98 1683.38 1476.21 1685.57C1475.43 1687.73 1474.71 1689.71 1474.05 1691.51C1473.41 1693.29 1472.88 1694.8 1472.45 1696.03C1472.01 1697.26 1471.74 1698.02 1471.62 1698.32L1453.71 1697.29L1469.51 1663.32L1450.91 1664.34V1649.58L1484.82 1648.96V1661.4Z" fill="white"/>
<path d="M1441.52 1868.57C1441.52 1871.35 1441.03 1873.88 1440.05 1876.16C1439.07 1878.41 1437.71 1880.35 1435.98 1881.97C1434.27 1883.56 1432.23 1884.8 1429.86 1885.69C1427.49 1886.58 1424.93 1887.03 1422.17 1887.03C1419.92 1887.03 1417.88 1886.72 1416.05 1886.1C1414.25 1885.49 1412.64 1884.63 1411.2 1883.54C1409.79 1882.45 1408.57 1881.15 1407.54 1879.64C1406.52 1878.14 1405.66 1876.51 1404.98 1874.75C1404.32 1873 1403.83 1871.14 1403.51 1869.18C1403.19 1867.22 1403.03 1865.24 1403.03 1863.24C1403.03 1860.78 1403.21 1858.38 1403.58 1856.06C1403.94 1853.71 1404.5 1851.51 1405.25 1849.46C1406.03 1847.41 1407.02 1845.52 1408.23 1843.79C1409.44 1842.06 1410.87 1840.58 1412.53 1839.34C1414.2 1838.11 1416.1 1837.16 1418.24 1836.47C1420.41 1835.77 1422.83 1835.41 1425.52 1835.41C1426.5 1835.41 1427.5 1835.46 1428.53 1835.55C1429.56 1835.62 1430.58 1835.76 1431.61 1835.96C1432.63 1836.17 1433.62 1836.44 1434.58 1836.78C1435.56 1837.12 1436.48 1837.56 1437.35 1838.08L1436.32 1851.55C1434.71 1850.75 1432.95 1850.15 1431.06 1849.74C1429.19 1849.3 1427.37 1849.09 1425.59 1849.09C1424.18 1849.09 1422.96 1849.3 1421.93 1849.74C1420.91 1850.15 1420.04 1850.74 1419.34 1851.51C1418.63 1852.29 1418.07 1853.22 1417.66 1854.32C1417.27 1855.39 1417.02 1856.58 1416.91 1857.9C1418.41 1857.04 1420.02 1856.35 1421.73 1855.85C1423.44 1855.35 1425.18 1855.1 1426.96 1855.1C1428.96 1855.1 1430.85 1855.41 1432.63 1856.02C1434.41 1856.64 1435.95 1857.53 1437.25 1858.69C1438.57 1859.85 1439.6 1861.27 1440.36 1862.93C1441.13 1864.59 1441.52 1866.47 1441.52 1868.57ZM1428.53 1869.59C1428.53 1868.89 1428.37 1868.26 1428.05 1867.71C1427.76 1867.14 1427.36 1866.67 1426.86 1866.28C1426.38 1865.87 1425.82 1865.56 1425.18 1865.36C1424.54 1865.13 1423.9 1865.01 1423.27 1865.01C1422.63 1865.01 1422 1865.13 1421.39 1865.36C1420.77 1865.56 1420.21 1865.87 1419.71 1866.28C1419.23 1866.67 1418.83 1867.14 1418.52 1867.71C1418.22 1868.26 1418.07 1868.89 1418.07 1869.59C1418.07 1870.28 1418.22 1870.9 1418.52 1871.47C1418.83 1872.02 1419.23 1872.49 1419.71 1872.88C1420.21 1873.26 1420.77 1873.57 1421.39 1873.8C1422 1874 1422.63 1874.11 1423.27 1874.11C1423.9 1874.11 1424.54 1874 1425.18 1873.8C1425.82 1873.57 1426.38 1873.26 1426.86 1872.88C1427.36 1872.49 1427.76 1872.02 1428.05 1871.47C1428.37 1870.9 1428.53 1870.28 1428.53 1869.59Z" fill="white"/>
<path d="M946.639 1478.59L943.631 1478.66L943.016 1493.43L927.566 1494.79L928.387 1479L910.135 1479.41L915.193 1449.4H928.113L924.354 1470.32L928.865 1470.19L930.164 1444.28H944.998L943.973 1469.64L946.639 1469.5V1478.59Z" fill="#1E1E1E"/>
<path d="M763.613 1841.8C763.613 1843.63 763.283 1845.37 762.622 1847.03C761.961 1848.67 761.084 1850.22 759.99 1851.68C758.919 1853.12 757.689 1854.45 756.299 1855.68C754.932 1856.89 753.542 1857.98 752.129 1858.96H762.93L762.109 1873.18L730.117 1872.09V1859.64C731.325 1859.23 732.59 1858.74 733.911 1858.17C735.256 1857.58 736.566 1856.91 737.842 1856.16C739.141 1855.41 740.36 1854.56 741.499 1853.63C742.661 1852.69 743.675 1851.68 744.541 1850.59C745.43 1849.47 746.125 1848.26 746.626 1846.96C747.15 1845.67 747.412 1844.26 747.412 1842.76C747.412 1841.89 747.253 1841.13 746.934 1840.47C746.637 1839.81 746.216 1839.26 745.669 1838.83C745.122 1838.37 744.484 1838.04 743.755 1837.84C743.049 1837.61 742.285 1837.5 741.465 1837.5C740.781 1837.5 740.086 1837.58 739.38 1837.74C738.674 1837.87 737.979 1838.08 737.295 1838.35C736.611 1838.62 735.962 1838.97 735.347 1839.38C734.754 1839.76 734.219 1840.21 733.74 1840.71L730.732 1827.31C731.576 1826.47 732.544 1825.76 733.638 1825.19C734.731 1824.62 735.882 1824.17 737.09 1823.82C738.298 1823.46 739.528 1823.2 740.781 1823.04C742.035 1822.88 743.265 1822.8 744.473 1822.8C747.161 1822.8 749.668 1823.29 751.992 1824.27C754.316 1825.23 756.333 1826.56 758.042 1828.27C759.774 1829.95 761.13 1831.96 762.109 1834.28C763.112 1836.61 763.613 1839.11 763.613 1841.8Z" fill="white"/>
<path d="M2201.29 1728.04C2201.29 1730.21 2201.12 1732.39 2200.78 1734.6C2200.43 1736.79 2199.9 1738.92 2199.17 1741C2198.46 1743.05 2197.55 1744.97 2196.43 1746.77C2195.32 1748.57 2193.99 1750.14 2192.44 1751.49C2190.89 1752.81 2189.1 1753.86 2187.07 1754.63C2185.06 1755.41 2182.81 1755.79 2180.3 1755.79C2179.21 1755.79 2178.06 1755.75 2176.85 1755.66C2175.66 1755.54 2174.48 1755.37 2173.29 1755.15C2172.13 1754.89 2170.99 1754.56 2169.88 1754.15C2168.76 1753.72 2167.75 1753.17 2166.83 1752.51L2168.61 1739.59C2169.32 1740 2170.12 1740.39 2171 1740.76C2171.89 1741.1 2172.81 1741.41 2173.74 1741.68C2174.67 1741.95 2175.61 1742.17 2176.54 1742.33C2177.48 1742.46 2178.36 1742.53 2179.21 1742.53C2180.53 1742.53 2181.67 1742.35 2182.63 1741.99C2183.61 1741.6 2184.43 1741.05 2185.09 1740.35C2185.77 1739.64 2186.32 1738.8 2186.73 1737.82C2187.14 1736.81 2187.43 1735.7 2187.62 1734.47C2186.25 1735.2 2184.81 1735.75 2183.31 1736.14C2181.81 1736.53 2180.28 1736.72 2178.73 1736.72C2176.82 1736.72 2174.99 1736.43 2173.26 1735.83C2171.53 1735.24 2170.01 1734.4 2168.71 1733.3C2167.42 1732.19 2166.38 1730.83 2165.6 1729.24C2164.83 1727.64 2164.44 1725.83 2164.44 1723.8C2164.44 1721.21 2164.91 1718.82 2165.84 1716.66C2166.8 1714.49 2168.1 1712.64 2169.74 1711.09C2171.38 1709.54 2173.32 1708.33 2175.55 1707.46C2177.81 1706.6 2180.23 1706.17 2182.83 1706.17C2186 1706.17 2188.73 1706.76 2191.03 1707.94C2193.36 1709.11 2195.27 1710.69 2196.78 1712.69C2198.3 1714.68 2199.43 1716.99 2200.16 1719.63C2200.91 1722.28 2201.29 1725.08 2201.29 1728.04ZM2187.14 1723.05C2187.14 1722.37 2186.98 1721.75 2186.66 1721.21C2186.36 1720.66 2185.98 1720.19 2185.5 1719.8C2185.02 1719.42 2184.47 1719.12 2183.86 1718.92C2183.24 1718.71 2182.63 1718.61 2182.01 1718.61C2181.4 1718.61 2180.79 1718.71 2180.2 1718.92C2179.61 1719.1 2179.07 1719.38 2178.59 1719.77C2178.11 1720.13 2177.73 1720.59 2177.43 1721.14C2177.16 1721.66 2177.02 1722.25 2177.02 1722.91C2177.02 1723.57 2177.17 1724.18 2177.46 1724.73C2177.78 1725.27 2178.18 1725.74 2178.66 1726.13C2179.14 1726.51 2179.69 1726.82 2180.3 1727.05C2180.92 1727.25 2181.53 1727.36 2182.15 1727.36C2182.76 1727.36 2183.37 1727.25 2183.96 1727.05C2184.55 1726.84 2185.09 1726.56 2185.57 1726.2C2186.04 1725.81 2186.42 1725.35 2186.69 1724.83C2186.99 1724.3 2187.14 1723.71 2187.14 1723.05Z" fill="#1E1E1E"/>
<path d="M2419.88 1692.85L2417.9 1741.45L2403 1740.77L2403.82 1708.44L2398.35 1712.2L2393.22 1700.51L2404.37 1692.17L2419.88 1692.85ZM2464.76 1717.53C2464.76 1719.53 2464.53 1721.53 2464.08 1723.51C2463.65 1725.49 2463.01 1727.39 2462.17 1729.22C2461.32 1731.04 2460.29 1732.74 2459.05 1734.31C2457.85 1735.88 2456.46 1737.25 2454.88 1738.41C2453.31 1739.57 2451.58 1740.48 2449.69 1741.15C2447.82 1741.81 2445.8 1742.14 2443.64 1742.14C2441.45 1742.14 2439.41 1741.81 2437.52 1741.15C2435.63 1740.48 2433.9 1739.57 2432.33 1738.41C2430.78 1737.25 2429.39 1735.88 2428.16 1734.31C2426.93 1732.74 2425.89 1731.04 2425.05 1729.22C2424.2 1727.39 2423.55 1725.49 2423.1 1723.51C2422.66 1721.5 2422.45 1719.51 2422.45 1717.53C2422.45 1715.54 2422.66 1713.55 2423.1 1711.55C2423.55 1709.54 2424.2 1707.63 2425.05 1705.8C2425.89 1703.98 2426.93 1702.28 2428.16 1700.71C2429.39 1699.12 2430.78 1697.74 2432.33 1696.58C2433.9 1695.41 2435.63 1694.5 2437.52 1693.84C2439.44 1693.18 2441.47 1692.85 2443.64 1692.85C2445.8 1692.85 2447.82 1693.18 2449.69 1693.84C2451.58 1694.5 2453.31 1695.41 2454.88 1696.58C2456.46 1697.74 2457.85 1699.12 2459.05 1700.71C2460.29 1702.28 2461.32 1703.98 2462.17 1705.8C2463.01 1707.63 2463.65 1709.54 2464.08 1711.55C2464.53 1713.55 2464.76 1715.54 2464.76 1717.53ZM2450.34 1718.55C2450.34 1717.55 2450.2 1716.43 2449.93 1715.2C2449.66 1713.97 2449.23 1712.82 2448.66 1711.75C2448.09 1710.68 2447.37 1709.78 2446.48 1709.05C2445.59 1708.32 2444.53 1707.96 2443.3 1707.96C2442.04 1707.96 2440.97 1708.32 2440.08 1709.05C2439.2 1709.78 2438.46 1710.68 2437.86 1711.75C2437.29 1712.82 2436.87 1713.97 2436.6 1715.2C2436.33 1716.43 2436.19 1717.55 2436.19 1718.55C2436.19 1719.56 2436.33 1720.67 2436.6 1721.9C2436.87 1723.13 2437.29 1724.28 2437.86 1725.35C2438.46 1726.43 2439.2 1727.33 2440.08 1728.05C2440.97 1728.78 2442.04 1729.15 2443.3 1729.15C2444.53 1729.15 2445.59 1728.78 2446.48 1728.05C2447.37 1727.33 2448.09 1726.43 2448.66 1725.35C2449.23 1724.28 2449.66 1723.13 2449.93 1721.9C2450.2 1720.67 2450.34 1719.56 2450.34 1718.55Z" fill="white"/>
<path d="M2287.19 1569.85L2285.21 1618.45L2270.31 1617.77L2271.13 1585.44L2265.66 1589.2L2260.53 1577.51L2271.67 1569.17L2287.19 1569.85ZM2323.22 1586.8C2323.22 1588.63 2322.89 1590.37 2322.23 1592.03C2321.56 1593.67 2320.69 1595.22 2319.59 1596.68C2318.52 1598.12 2317.29 1599.45 2315.9 1600.68C2314.54 1601.89 2313.15 1602.98 2311.73 1603.96H2322.53L2321.71 1618.18L2289.72 1617.09V1604.64C2290.93 1604.23 2292.19 1603.74 2293.51 1603.17C2294.86 1602.58 2296.17 1601.91 2297.45 1601.16C2298.74 1600.41 2299.96 1599.56 2301.1 1598.63C2302.26 1597.69 2303.28 1596.68 2304.14 1595.59C2305.03 1594.47 2305.73 1593.26 2306.23 1591.96C2306.75 1590.67 2307.02 1589.26 2307.02 1587.76C2307.02 1586.89 2306.86 1586.13 2306.54 1585.47C2306.24 1584.81 2305.82 1584.26 2305.27 1583.83C2304.73 1583.37 2304.09 1583.04 2303.36 1582.84C2302.65 1582.61 2301.89 1582.5 2301.07 1582.5C2300.38 1582.5 2299.69 1582.58 2298.98 1582.74C2298.28 1582.87 2297.58 1583.08 2296.9 1583.35C2296.21 1583.62 2295.57 1583.97 2294.95 1584.38C2294.36 1584.76 2293.82 1585.21 2293.34 1585.71L2290.34 1572.31C2291.18 1571.47 2292.15 1570.76 2293.24 1570.19C2294.33 1569.62 2295.49 1569.17 2296.69 1568.82C2297.9 1568.46 2299.13 1568.2 2300.38 1568.04C2301.64 1567.88 2302.87 1567.8 2304.08 1567.8C2306.76 1567.8 2309.27 1568.29 2311.6 1569.27C2313.92 1570.23 2315.94 1571.56 2317.65 1573.27C2319.38 1574.95 2320.73 1576.96 2321.71 1579.28C2322.72 1581.61 2323.22 1584.11 2323.22 1586.8Z" fill="white"/>
<path d="M1792.17 1278.85L1790.18 1327.45L1775.28 1326.77L1776.1 1294.44L1770.63 1298.2L1765.51 1286.51L1776.65 1278.17L1792.17 1278.85ZM1830.24 1311.59L1827.23 1311.66L1826.62 1326.43L1811.17 1327.79L1811.99 1312L1793.74 1312.41L1798.8 1282.4H1811.72L1807.96 1303.32L1812.47 1303.19L1813.77 1277.28H1828.6L1827.58 1302.64L1830.24 1302.5V1311.59Z" fill="white"/>
<path d="M2192.54 1368.85L2190.56 1417.45L2175.66 1416.77L2176.48 1384.44L2171.01 1388.2L2165.88 1376.51L2177.02 1368.17L2192.54 1368.85ZM2229.87 1400.77C2229.87 1403.8 2229.38 1406.44 2228.4 1408.67C2227.44 1410.88 2226.1 1412.72 2224.36 1414.21C2222.63 1415.66 2220.56 1416.76 2218.14 1417.49C2215.75 1418.19 2213.12 1418.55 2210.25 1418.55C2208.95 1418.55 2207.62 1418.42 2206.25 1418.17C2204.88 1417.92 2203.53 1417.58 2202.18 1417.15C2200.84 1416.71 2199.53 1416.2 2198.25 1415.61C2197 1415.01 2195.82 1414.38 2194.73 1413.69L2196.03 1399.95C2196.89 1400.55 2197.86 1401.12 2198.93 1401.66C2200 1402.19 2201.11 1402.66 2202.25 1403.1C2203.41 1403.51 2204.57 1403.84 2205.74 1404.09C2206.92 1404.34 2208.06 1404.46 2209.15 1404.46C2209.79 1404.46 2210.44 1404.42 2211.1 1404.33C2211.79 1404.21 2212.4 1404.02 2212.95 1403.75C2213.49 1403.47 2213.94 1403.09 2214.28 1402.58C2214.64 1402.08 2214.83 1401.43 2214.83 1400.64C2214.83 1400.14 2214.6 1399.67 2214.14 1399.24C2213.69 1398.8 2213.14 1398.44 2212.5 1398.14C2211.86 1397.82 2211.2 1397.58 2210.52 1397.42C2209.84 1397.24 2209.27 1397.15 2208.81 1397.15C2208.49 1397.15 2208.11 1397.17 2207.65 1397.22C2207.22 1397.24 2206.77 1397.29 2206.32 1397.36C2205.86 1397.42 2205.42 1397.53 2204.98 1397.66C2204.57 1397.78 2204.25 1397.93 2204.03 1398.11L2204.23 1388.33C2204.62 1388.38 2204.98 1388.41 2205.33 1388.43C2205.67 1388.46 2206.03 1388.47 2206.42 1388.47C2207.22 1388.47 2208.08 1388.4 2209.02 1388.26C2209.95 1388.1 2210.82 1387.84 2211.61 1387.48C2212.41 1387.09 2213.07 1386.57 2213.6 1385.91C2214.14 1385.24 2214.42 1384.39 2214.42 1383.34C2214.42 1382.59 2214.21 1381.99 2213.8 1381.53C2213.39 1381.05 2212.88 1380.69 2212.26 1380.44C2211.67 1380.19 2211.02 1380.01 2210.32 1379.92C2209.61 1379.83 2208.97 1379.79 2208.4 1379.79C2206.56 1379.79 2204.73 1380.11 2202.93 1380.74C2201.16 1381.38 2199.58 1382.32 2198.22 1383.55L2195.34 1371.11C2197.44 1369.4 2199.82 1368.1 2202.49 1367.21C2205.18 1366.3 2207.88 1365.84 2210.59 1365.84C2213.07 1365.84 2215.44 1366.21 2217.7 1366.94C2219.98 1367.64 2221.98 1368.7 2223.71 1370.11C2225.45 1371.5 2226.82 1373.22 2227.85 1375.28C2228.88 1377.33 2229.39 1379.7 2229.39 1382.38C2229.39 1383.16 2229.27 1383.95 2229.05 1384.74C2228.82 1385.54 2228.51 1386.32 2228.12 1387.07C2227.74 1387.82 2227.28 1388.53 2226.76 1389.19C2226.23 1389.82 2225.67 1390.38 2225.08 1390.86C2226.04 1391.29 2226.82 1391.88 2227.44 1392.6C2228.05 1393.33 2228.54 1394.14 2228.91 1395.03C2229.27 1395.92 2229.52 1396.87 2229.66 1397.87C2229.8 1398.85 2229.87 1399.82 2229.87 1400.77Z" fill="#1E1E1E"/>
<path d="M2428.12 1559.85L2426.14 1608.45L2411.24 1607.77L2412.06 1575.44L2406.59 1579.2L2401.46 1567.51L2412.6 1559.17L2428.12 1559.85ZM2455.94 1559.85L2453.96 1608.45L2439.06 1607.77L2439.88 1575.44L2434.41 1579.2L2429.28 1567.51L2440.43 1559.17L2455.94 1559.85Z" fill="white"/>
<path d="M1389.44 1205.85L1387.46 1254.45L1372.55 1253.77L1373.38 1221.44L1367.91 1225.2L1362.78 1213.51L1373.92 1205.17L1389.44 1205.85ZM1427.45 1237.77C1427.45 1240.74 1426.91 1243.31 1425.84 1245.5C1424.79 1247.69 1423.36 1249.5 1421.53 1250.93C1419.71 1252.37 1417.57 1253.44 1415.11 1254.15C1412.65 1254.85 1410.02 1255.21 1407.21 1255.21C1405.87 1255.21 1404.55 1255.11 1403.25 1254.93C1401.95 1254.73 1400.66 1254.46 1399.39 1254.15C1398.13 1253.8 1396.88 1253.42 1395.63 1252.98C1394.4 1252.55 1393.15 1252.08 1391.9 1251.58L1393.2 1237.98C1394.02 1238.43 1394.9 1238.86 1395.83 1239.24C1396.77 1239.63 1397.72 1239.96 1398.7 1240.23C1399.7 1240.51 1400.71 1240.72 1401.71 1240.88C1402.74 1241.04 1403.73 1241.12 1404.68 1241.12C1405.25 1241.12 1405.95 1241.08 1406.77 1240.99C1407.59 1240.87 1408.38 1240.68 1409.13 1240.41C1409.88 1240.11 1410.52 1239.72 1411.04 1239.24C1411.59 1238.74 1411.86 1238.09 1411.86 1237.29C1411.86 1236.54 1411.64 1235.89 1411.21 1235.35C1410.8 1234.8 1410.25 1234.36 1409.57 1234.01C1408.91 1233.65 1408.16 1233.36 1407.32 1233.16C1406.47 1232.95 1405.62 1232.79 1404.75 1232.68C1403.91 1232.57 1403.1 1232.5 1402.33 1232.48C1401.57 1232.45 1400.95 1232.44 1400.45 1232.44C1399.42 1232.44 1398.37 1232.49 1397.3 1232.58C1396.25 1232.67 1395.23 1232.85 1394.22 1233.12L1395.59 1205.51L1423.28 1204.76L1424.03 1219.04L1406.87 1218.09L1406.53 1224.17C1407.55 1223.92 1408.58 1223.74 1409.61 1223.62C1410.63 1223.49 1411.66 1223.42 1412.68 1223.42C1414.76 1223.42 1416.68 1223.76 1418.46 1224.44C1420.26 1225.1 1421.82 1226.06 1423.14 1227.31C1424.49 1228.57 1425.53 1230.08 1426.29 1231.86C1427.06 1233.61 1427.45 1235.59 1427.45 1237.77Z" fill="white"/>
<path d="M879.97 1043.85L877.987 1092.45L863.085 1091.77L863.905 1059.44L858.437 1063.2L853.31 1051.51L864.452 1043.17L879.97 1043.85ZM921.122 1075.57C921.122 1078.35 920.632 1080.88 919.652 1083.16C918.673 1085.41 917.317 1087.35 915.585 1088.97C913.876 1090.56 911.837 1091.8 909.467 1092.69C907.097 1093.58 904.534 1094.03 901.776 1094.03C899.521 1094.03 897.481 1093.72 895.658 1093.1C893.858 1092.49 892.24 1091.63 890.805 1090.54C889.392 1089.45 888.173 1088.15 887.147 1086.64C886.122 1085.14 885.268 1083.51 884.584 1081.75C883.923 1080 883.433 1078.14 883.114 1076.18C882.795 1074.22 882.636 1072.24 882.636 1070.24C882.636 1067.78 882.818 1065.38 883.183 1063.06C883.547 1060.71 884.105 1058.51 884.857 1056.46C885.632 1054.41 886.623 1052.52 887.831 1050.79C889.039 1049.06 890.474 1047.58 892.138 1046.34C893.801 1045.11 895.704 1044.16 897.846 1043.47C900.01 1042.77 902.437 1042.41 905.126 1042.41C906.106 1042.41 907.108 1042.46 908.134 1042.55C909.159 1042.62 910.185 1042.76 911.21 1042.96C912.235 1043.17 913.227 1043.44 914.184 1043.78C915.163 1044.12 916.086 1044.56 916.952 1045.08L915.927 1058.55C914.309 1057.75 912.554 1057.15 910.663 1056.74C908.795 1056.3 906.972 1056.09 905.194 1056.09C903.782 1056.09 902.562 1056.3 901.537 1056.74C900.512 1057.15 899.646 1057.74 898.939 1058.51C898.233 1059.29 897.675 1060.22 897.265 1061.32C896.877 1062.39 896.627 1063.58 896.513 1064.9C898.017 1064.04 899.623 1063.35 901.332 1062.85C903.041 1062.35 904.784 1062.1 906.562 1062.1C908.567 1062.1 910.458 1062.41 912.235 1063.02C914.013 1063.64 915.551 1064.53 916.85 1065.69C918.171 1066.85 919.208 1068.27 919.96 1069.93C920.735 1071.59 921.122 1073.47 921.122 1075.57ZM908.134 1076.59C908.134 1075.89 907.974 1075.26 907.655 1074.71C907.359 1074.14 906.96 1073.67 906.459 1073.28C905.98 1072.87 905.422 1072.56 904.784 1072.36C904.146 1072.13 903.508 1072.01 902.87 1072.01C902.232 1072.01 901.605 1072.13 900.99 1072.36C900.375 1072.56 899.817 1072.87 899.315 1073.28C898.837 1073.67 898.438 1074.14 898.119 1074.71C897.823 1075.26 897.675 1075.89 897.675 1076.59C897.675 1077.28 897.823 1077.9 898.119 1078.47C898.438 1079.02 898.837 1079.49 899.315 1079.88C899.817 1080.26 900.375 1080.57 900.99 1080.8C901.605 1081 902.232 1081.11 902.87 1081.11C903.508 1081.11 904.146 1081 904.784 1080.8C905.422 1080.57 905.98 1080.26 906.459 1079.88C906.96 1079.49 907.359 1079.02 907.655 1078.47C907.974 1077.9 908.134 1077.28 908.134 1076.59Z" fill="white"/>
<path d="M642.038 857.85L640.056 906.453L625.153 905.77L625.974 873.436L620.505 877.195L615.378 865.506L626.521 857.166L642.038 857.85ZM682.609 891.893C682.609 893.738 682.359 895.39 681.857 896.849C681.356 898.307 680.661 899.606 679.772 900.745C678.907 901.862 677.87 902.819 676.662 903.616C675.477 904.414 674.167 905.075 672.731 905.599C671.319 906.1 669.826 906.476 668.254 906.727C666.682 906.954 665.087 907.068 663.469 907.068C661.167 907.068 658.889 906.761 656.633 906.146C654.4 905.53 652.383 904.596 650.583 903.343C648.806 902.067 647.359 900.483 646.242 898.592C645.148 896.701 644.602 894.467 644.602 891.893C644.602 890.844 644.727 889.796 644.978 888.748C645.228 887.677 645.593 886.663 646.071 885.706C646.55 884.749 647.154 883.883 647.883 883.108C648.612 882.334 649.455 881.684 650.412 881.16C648.908 879.816 647.78 878.278 647.028 876.546C646.276 874.791 645.9 872.911 645.9 870.906C645.9 868.559 646.413 866.508 647.438 864.754C648.487 862.977 649.842 861.495 651.506 860.311C653.192 859.103 655.083 858.203 657.18 857.61C659.276 856.995 661.372 856.688 663.469 856.688C664.859 856.688 666.249 856.824 667.639 857.098C669.051 857.371 670.407 857.77 671.706 858.294C673.005 858.818 674.213 859.479 675.329 860.276C676.468 861.074 677.448 862.008 678.269 863.079C679.112 864.127 679.772 865.312 680.251 866.634C680.729 867.933 680.969 869.357 680.969 870.906C680.969 872.911 680.593 874.791 679.841 876.546C679.089 878.278 677.961 879.816 676.457 881.16C678.645 882.299 680.217 883.769 681.174 885.569C682.131 887.369 682.609 889.477 682.609 891.893ZM669.143 874.188C669.143 873.436 668.972 872.763 668.63 872.171C668.311 871.556 667.878 871.032 667.331 870.599C666.784 870.166 666.169 869.835 665.485 869.607C664.825 869.38 664.152 869.266 663.469 869.266C662.762 869.266 662.067 869.38 661.384 869.607C660.7 869.835 660.085 870.166 659.538 870.599C658.991 871.032 658.547 871.556 658.205 872.171C657.886 872.763 657.727 873.436 657.727 874.188C657.727 874.939 657.886 875.623 658.205 876.238C658.547 876.831 658.991 877.332 659.538 877.742C660.085 878.152 660.7 878.471 661.384 878.699C662.067 878.927 662.762 879.041 663.469 879.041C664.152 879.041 664.825 878.927 665.485 878.699C666.169 878.471 666.784 878.152 667.331 877.742C667.878 877.332 668.311 876.831 668.63 876.238C668.972 875.623 669.143 874.939 669.143 874.188ZM669.074 890.252C669.074 889.5 668.903 888.828 668.562 888.235C668.243 887.62 667.821 887.107 667.297 886.697C666.773 886.287 666.169 885.968 665.485 885.74C664.825 885.512 664.152 885.398 663.469 885.398C662.785 885.398 662.102 885.512 661.418 885.74C660.757 885.968 660.153 886.287 659.606 886.697C659.06 887.107 658.615 887.62 658.273 888.235C657.954 888.828 657.795 889.5 657.795 890.252C657.795 890.981 657.954 891.642 658.273 892.234C658.615 892.827 659.06 893.328 659.606 893.738C660.153 894.148 660.757 894.467 661.418 894.695C662.102 894.923 662.785 895.037 663.469 895.037C664.152 895.037 664.825 894.923 665.485 894.695C666.169 894.467 666.773 894.148 667.297 893.738C667.821 893.328 668.243 892.827 668.562 892.234C668.903 891.642 669.074 890.981 669.074 890.252Z" fill="white"/>
<path d="M642.038 857.85L640.056 906.453L625.153 905.77L625.974 873.436L620.505 877.195L615.378 865.506L626.521 857.166L642.038 857.85ZM682.609 891.893C682.609 893.738 682.359 895.39 681.857 896.849C681.356 898.307 680.661 899.606 679.772 900.745C678.907 901.862 677.87 902.819 676.662 903.616C675.477 904.414 674.167 905.075 672.731 905.599C671.319 906.1 669.826 906.476 668.254 906.727C666.682 906.954 665.087 907.068 663.469 907.068C661.167 907.068 658.889 906.761 656.633 906.146C654.4 905.53 652.383 904.596 650.583 903.343C648.806 902.067 647.359 900.483 646.242 898.592C645.148 896.701 644.602 894.467 644.602 891.893C644.602 890.844 644.727 889.796 644.978 888.748C645.228 887.677 645.593 886.663 646.071 885.706C646.55 884.749 647.154 883.883 647.883 883.108C648.612 882.334 649.455 881.684 650.412 881.16C648.908 879.816 647.78 878.278 647.028 876.546C646.276 874.791 645.9 872.911 645.9 870.906C645.9 868.559 646.413 866.508 647.438 864.754C648.487 862.977 649.842 861.495 651.506 860.311C653.192 859.103 655.083 858.203 657.18 857.61C659.276 856.995 661.372 856.688 663.469 856.688C664.859 856.688 666.249 856.824 667.639 857.098C669.051 857.371 670.407 857.77 671.706 858.294C673.005 858.818 674.213 859.479 675.329 860.276C676.468 861.074 677.448 862.008 678.269 863.079C679.112 864.127 679.772 865.312 680.251 866.634C680.729 867.933 680.969 869.357 680.969 870.906C680.969 872.911 680.593 874.791 679.841 876.546C679.089 878.278 677.961 879.816 676.457 881.16C678.645 882.299 680.217 883.769 681.174 885.569C682.131 887.369 682.609 889.477 682.609 891.893ZM669.143 874.188C669.143 873.436 668.972 872.763 668.63 872.171C668.311 871.556 667.878 871.032 667.331 870.599C666.784 870.166 666.169 869.835 665.485 869.607C664.825 869.38 664.152 869.266 663.469 869.266C662.762 869.266 662.067 869.38 661.384 869.607C660.7 869.835 660.085 870.166 659.538 870.599C658.991 871.032 658.547 871.556 658.205 872.171C657.886 872.763 657.727 873.436 657.727 874.188C657.727 874.939 657.886 875.623 658.205 876.238C658.547 876.831 658.991 877.332 659.538 877.742C660.085 878.152 660.7 878.471 661.384 878.699C662.067 878.927 662.762 879.041 663.469 879.041C664.152 879.041 664.825 878.927 665.485 878.699C666.169 878.471 666.784 878.152 667.331 877.742C667.878 877.332 668.311 876.831 668.63 876.238C668.972 875.623 669.143 874.939 669.143 874.188ZM669.074 890.252C669.074 889.5 668.903 888.828 668.562 888.235C668.243 887.62 667.821 887.107 667.297 886.697C666.773 886.287 666.169 885.968 665.485 885.74C664.825 885.512 664.152 885.398 663.469 885.398C662.785 885.398 662.102 885.512 661.418 885.74C660.757 885.968 660.153 886.287 659.606 886.697C659.06 887.107 658.615 887.62 658.273 888.235C657.954 888.828 657.795 889.5 657.795 890.252C657.795 890.981 657.954 891.642 658.273 892.234C658.615 892.827 659.06 893.328 659.606 893.738C660.153 894.148 660.757 894.467 661.418 894.695C662.102 894.923 662.785 895.037 663.469 895.037C664.152 895.037 664.825 894.923 665.485 894.695C666.169 894.467 666.773 894.148 667.297 893.738C667.821 893.328 668.243 892.827 668.562 892.234C668.903 891.642 669.074 890.981 669.074 890.252Z" fill="white"/>
<path d="M918.465 680.803C918.465 682.626 918.134 684.369 917.474 686.032C916.813 687.673 915.936 689.222 914.842 690.681C913.771 692.116 912.54 693.449 911.15 694.68C909.783 695.887 908.393 696.981 906.98 697.961H917.781L916.961 712.18L884.969 711.086V698.645C886.176 698.234 887.441 697.744 888.763 697.175C890.107 696.582 891.417 695.91 892.693 695.158C893.992 694.406 895.211 693.563 896.351 692.629C897.513 691.695 898.527 690.681 899.393 689.587C900.281 688.47 900.976 687.263 901.478 685.964C902.002 684.665 902.264 683.264 902.264 681.76C902.264 680.894 902.104 680.131 901.785 679.47C901.489 678.809 901.067 678.262 900.521 677.829C899.974 677.373 899.336 677.043 898.606 676.838C897.9 676.61 897.137 676.496 896.316 676.496C895.633 676.496 894.938 676.576 894.231 676.735C893.525 676.872 892.83 677.077 892.146 677.351C891.463 677.624 890.813 677.966 890.198 678.376C889.606 678.763 889.07 679.208 888.592 679.709L885.584 666.311C886.427 665.467 887.396 664.761 888.489 664.191C889.583 663.622 890.734 663.166 891.941 662.824C893.149 662.46 894.38 662.198 895.633 662.038C896.886 661.879 898.117 661.799 899.324 661.799C902.013 661.799 904.52 662.289 906.844 663.269C909.168 664.226 911.185 665.559 912.894 667.268C914.625 668.954 915.981 670.959 916.961 673.283C917.964 675.607 918.465 678.114 918.465 680.803ZM963.001 688.527C963.001 690.533 962.773 692.526 962.317 694.509C961.884 696.491 961.246 698.394 960.403 700.217C959.56 702.04 958.523 703.737 957.293 705.31C956.085 706.882 954.695 708.249 953.123 709.411C951.551 710.573 949.819 711.485 947.928 712.146C946.059 712.806 944.043 713.137 941.878 713.137C939.69 713.137 937.651 712.806 935.76 712.146C933.868 711.485 932.137 710.573 930.564 709.411C929.015 708.249 927.625 706.882 926.395 705.31C925.164 703.737 924.127 702.04 923.284 700.217C922.441 698.394 921.792 696.491 921.336 694.509C920.903 692.504 920.687 690.51 920.687 688.527C920.687 686.545 920.903 684.551 921.336 682.546C921.792 680.541 922.441 678.627 923.284 676.804C924.127 674.981 925.164 673.283 926.395 671.711C927.625 670.116 929.015 668.737 930.564 667.575C932.137 666.413 933.868 665.502 935.76 664.841C937.674 664.18 939.713 663.85 941.878 663.85C944.043 663.85 946.059 664.18 947.928 664.841C949.819 665.502 951.551 666.413 953.123 667.575C954.695 668.737 956.085 670.116 957.293 671.711C958.523 673.283 959.56 674.981 960.403 676.804C961.246 678.627 961.884 680.541 962.317 682.546C962.773 684.551 963.001 686.545 963.001 688.527ZM948.577 689.553C948.577 688.55 948.44 687.434 948.167 686.203C947.894 684.973 947.472 683.822 946.902 682.751C946.333 681.68 945.604 680.78 944.715 680.051C943.826 679.322 942.767 678.957 941.536 678.957C940.283 678.957 939.212 679.322 938.323 680.051C937.435 680.78 936.694 681.68 936.102 682.751C935.532 683.822 935.11 684.973 934.837 686.203C934.563 687.434 934.427 688.55 934.427 689.553C934.427 690.555 934.563 691.672 934.837 692.902C935.11 694.133 935.532 695.284 936.102 696.354C936.694 697.425 937.435 698.326 938.323 699.055C939.212 699.784 940.283 700.148 941.536 700.148C942.767 700.148 943.826 699.784 944.715 699.055C945.604 698.326 946.333 697.425 946.902 696.354C947.472 695.284 947.894 694.133 948.167 692.902C948.44 691.672 948.577 690.555 948.577 689.553Z" fill="white"/>
<path d="M1640.77 715.803C1640.77 717.626 1640.44 719.369 1639.78 721.032C1639.12 722.673 1638.24 724.222 1637.15 725.681C1636.08 727.116 1634.85 728.449 1633.46 729.68C1632.09 730.887 1630.7 731.981 1629.29 732.961H1640.09L1639.27 747.18L1607.28 746.086V733.645C1608.48 733.234 1609.75 732.744 1611.07 732.175C1612.41 731.582 1613.72 730.91 1615 730.158C1616.3 729.406 1617.52 728.563 1618.66 727.629C1619.82 726.695 1620.83 725.681 1621.7 724.587C1622.59 723.47 1623.28 722.263 1623.78 720.964C1624.31 719.665 1624.57 718.264 1624.57 716.76C1624.57 715.894 1624.41 715.131 1624.09 714.47C1623.8 713.809 1623.37 713.262 1622.83 712.829C1622.28 712.373 1621.64 712.043 1620.91 711.838C1620.21 711.61 1619.44 711.496 1618.62 711.496C1617.94 711.496 1617.24 711.576 1616.54 711.735C1615.83 711.872 1615.14 712.077 1614.45 712.351C1613.77 712.624 1613.12 712.966 1612.5 713.376C1611.91 713.763 1611.38 714.208 1610.9 714.709L1607.89 701.311C1608.73 700.467 1609.7 699.761 1610.8 699.191C1611.89 698.622 1613.04 698.166 1614.25 697.824C1615.46 697.46 1616.69 697.198 1617.94 697.038C1619.19 696.879 1620.42 696.799 1621.63 696.799C1624.32 696.799 1626.83 697.289 1629.15 698.269C1631.47 699.226 1633.49 700.559 1635.2 702.268C1636.93 703.954 1638.29 705.959 1639.27 708.283C1640.27 710.607 1640.77 713.114 1640.77 715.803ZM1676.46 715.803C1676.46 717.626 1676.12 719.369 1675.46 721.032C1674.8 722.673 1673.93 724.222 1672.83 725.681C1671.76 727.116 1670.53 728.449 1669.14 729.68C1667.77 730.887 1666.38 731.981 1664.97 732.961H1675.77L1674.95 747.18L1642.96 746.086V733.645C1644.17 733.234 1645.43 732.744 1646.75 732.175C1648.1 731.582 1649.41 730.91 1650.68 730.158C1651.98 729.406 1653.2 728.563 1654.34 727.629C1655.5 726.695 1656.52 725.681 1657.38 724.587C1658.27 723.47 1658.97 722.263 1659.47 720.964C1659.99 719.665 1660.25 718.264 1660.25 716.76C1660.25 715.894 1660.09 715.131 1659.78 714.47C1659.48 713.809 1659.06 713.262 1658.51 712.829C1657.96 712.373 1657.33 712.043 1656.6 711.838C1655.89 711.61 1655.13 711.496 1654.31 711.496C1653.62 711.496 1652.93 711.576 1652.22 711.735C1651.52 711.872 1650.82 712.077 1650.14 712.351C1649.45 712.624 1648.8 712.966 1648.19 713.376C1647.6 713.763 1647.06 714.208 1646.58 714.709L1643.57 701.311C1644.42 700.467 1645.39 699.761 1646.48 699.191C1647.57 698.622 1648.72 698.166 1649.93 697.824C1651.14 697.46 1652.37 697.198 1653.62 697.038C1654.88 696.879 1656.11 696.799 1657.31 696.799C1660 696.799 1662.51 697.289 1664.83 698.269C1667.16 699.226 1669.17 700.559 1670.88 702.268C1672.62 703.954 1673.97 705.959 1674.95 708.283C1675.95 710.607 1676.46 713.114 1676.46 715.803Z" fill="#1E1E1E"/>
<path d="M1509.12 587.803C1509.12 589.626 1508.79 591.369 1508.13 593.032C1507.47 594.673 1506.59 596.222 1505.5 597.681C1504.43 599.116 1503.2 600.449 1501.81 601.68C1500.44 602.887 1499.05 603.981 1497.64 604.961H1508.44L1507.62 619.18L1475.63 618.086V605.645C1476.83 605.234 1478.1 604.744 1479.42 604.175C1480.76 603.582 1482.07 602.91 1483.35 602.158C1484.65 601.406 1485.87 600.563 1487.01 599.629C1488.17 598.695 1489.18 597.681 1490.05 596.587C1490.94 595.47 1491.63 594.263 1492.13 592.964C1492.66 591.665 1492.92 590.264 1492.92 588.76C1492.92 587.894 1492.76 587.131 1492.44 586.47C1492.15 585.809 1491.72 585.262 1491.18 584.829C1490.63 584.373 1489.99 584.043 1489.26 583.838C1488.56 583.61 1487.79 583.496 1486.97 583.496C1486.29 583.496 1485.6 583.576 1484.89 583.735C1484.18 583.872 1483.49 584.077 1482.8 584.351C1482.12 584.624 1481.47 584.966 1480.86 585.376C1480.26 585.763 1479.73 586.208 1479.25 586.709L1476.24 573.311C1477.08 572.467 1478.05 571.761 1479.15 571.191C1480.24 570.622 1481.39 570.166 1482.6 569.824C1483.81 569.46 1485.04 569.198 1486.29 569.038C1487.54 568.879 1488.77 568.799 1489.98 568.799C1492.67 568.799 1495.18 569.289 1497.5 570.269C1499.83 571.226 1501.84 572.559 1503.55 574.268C1505.28 575.954 1506.64 577.959 1507.62 580.283C1508.62 582.607 1509.12 585.114 1509.12 587.803ZM1546.1 602.773C1546.1 605.804 1545.61 608.436 1544.63 610.669C1543.68 612.879 1542.33 614.725 1540.6 616.206C1538.87 617.664 1536.8 618.758 1534.38 619.487C1531.99 620.194 1529.36 620.547 1526.49 620.547C1525.19 620.547 1523.85 620.422 1522.49 620.171C1521.12 619.92 1519.76 619.578 1518.42 619.146C1517.07 618.713 1515.76 618.2 1514.49 617.607C1513.24 617.015 1512.06 616.377 1510.97 615.693L1512.27 601.953C1513.13 602.546 1514.1 603.115 1515.17 603.662C1516.24 604.186 1517.35 604.665 1518.49 605.098C1519.65 605.508 1520.81 605.838 1521.97 606.089C1523.16 606.34 1524.3 606.465 1525.39 606.465C1526.03 606.465 1526.68 606.419 1527.34 606.328C1528.02 606.214 1528.64 606.021 1529.19 605.747C1529.73 605.474 1530.18 605.086 1530.52 604.585C1530.88 604.084 1531.07 603.434 1531.07 602.637C1531.07 602.135 1530.84 601.668 1530.38 601.235C1529.93 600.802 1529.38 600.438 1528.74 600.142C1528.1 599.823 1527.44 599.583 1526.76 599.424C1526.08 599.242 1525.51 599.15 1525.05 599.15C1524.73 599.15 1524.34 599.173 1523.89 599.219C1523.45 599.242 1523.01 599.287 1522.55 599.355C1522.1 599.424 1521.65 599.526 1521.22 599.663C1520.81 599.777 1520.49 599.925 1520.26 600.107L1520.47 590.332C1520.86 590.378 1521.22 590.412 1521.56 590.435C1521.91 590.457 1522.27 590.469 1522.66 590.469C1523.45 590.469 1524.32 590.4 1525.25 590.264C1526.19 590.104 1527.06 589.842 1527.85 589.478C1528.65 589.09 1529.31 588.566 1529.83 587.905C1530.38 587.244 1530.66 586.39 1530.66 585.342C1530.66 584.59 1530.45 583.986 1530.04 583.53C1529.63 583.052 1529.12 582.687 1528.5 582.437C1527.91 582.186 1527.26 582.015 1526.55 581.924C1525.85 581.833 1525.21 581.787 1524.64 581.787C1522.79 581.787 1520.97 582.106 1519.17 582.744C1517.39 583.382 1515.82 584.316 1514.45 585.547L1511.58 573.105C1513.68 571.396 1516.06 570.098 1518.73 569.209C1521.42 568.298 1524.12 567.842 1526.83 567.842C1529.31 567.842 1531.68 568.206 1533.94 568.936C1536.22 569.642 1538.22 570.701 1539.95 572.114C1541.68 573.504 1543.06 575.225 1544.09 577.275C1545.11 579.326 1545.63 581.696 1545.63 584.385C1545.63 585.16 1545.51 585.946 1545.28 586.743C1545.06 587.541 1544.75 588.315 1544.36 589.067C1543.97 589.819 1543.52 590.526 1542.99 591.187C1542.47 591.825 1541.91 592.383 1541.32 592.861C1542.28 593.294 1543.06 593.875 1543.68 594.604C1544.29 595.334 1544.78 596.143 1545.15 597.031C1545.51 597.92 1545.76 598.866 1545.9 599.868C1546.04 600.848 1546.1 601.816 1546.1 602.773Z" fill="white"/>
<path d="M1787.75 516.803C1787.75 518.626 1787.42 520.369 1786.75 522.032C1786.09 523.673 1785.22 525.222 1784.12 526.681C1783.05 528.116 1781.82 529.449 1780.43 530.68C1779.06 531.887 1777.67 532.981 1776.26 533.961H1787.06L1786.24 548.18L1754.25 547.086V534.645C1755.46 534.234 1756.72 533.744 1758.04 533.175C1759.39 532.582 1760.7 531.91 1761.97 531.158C1763.27 530.406 1764.49 529.563 1765.63 528.629C1766.79 527.695 1767.81 526.681 1768.67 525.587C1769.56 524.47 1770.26 523.263 1770.76 521.964C1771.28 520.665 1771.54 519.264 1771.54 517.76C1771.54 516.894 1771.39 516.131 1771.07 515.47C1770.77 514.809 1770.35 514.262 1769.8 513.829C1769.25 513.373 1768.62 513.043 1767.89 512.838C1767.18 512.61 1766.42 512.496 1765.6 512.496C1764.91 512.496 1764.22 512.576 1763.51 512.735C1762.81 512.872 1762.11 513.077 1761.43 513.351C1760.74 513.624 1760.09 513.966 1759.48 514.376C1758.89 514.763 1758.35 515.208 1757.87 515.709L1754.87 502.311C1755.71 501.467 1756.68 500.761 1757.77 500.191C1758.86 499.622 1760.01 499.166 1761.22 498.824C1762.43 498.46 1763.66 498.198 1764.91 498.038C1766.17 497.879 1767.4 497.799 1768.61 497.799C1771.29 497.799 1773.8 498.289 1776.12 499.269C1778.45 500.226 1780.47 501.559 1782.17 503.268C1783.91 504.954 1785.26 506.959 1786.24 509.283C1787.24 511.607 1787.75 514.114 1787.75 516.803ZM1825.48 532.594L1822.47 532.662L1821.86 547.428L1806.41 548.795L1807.23 533.004L1788.98 533.414L1794.04 503.404H1806.96L1803.2 524.322L1807.71 524.186L1809.01 498.277H1823.84L1822.81 523.639L1825.48 523.502V532.594Z" fill="white"/>
<path d="M2036.91 516.803C2036.91 518.626 2036.58 520.369 2035.92 522.032C2035.26 523.673 2034.38 525.222 2033.29 526.681C2032.21 528.116 2030.98 529.449 2029.59 530.68C2028.23 531.887 2026.84 532.981 2025.42 533.961H2036.22L2035.4 548.18L2003.41 547.086V534.645C2004.62 534.234 2005.88 533.744 2007.21 533.175C2008.55 532.582 2009.86 531.91 2011.14 531.158C2012.44 530.406 2013.65 529.563 2014.79 528.629C2015.96 527.695 2016.97 526.681 2017.84 525.587C2018.72 524.47 2019.42 523.263 2019.92 521.964C2020.44 520.665 2020.71 519.264 2020.71 517.76C2020.71 516.894 2020.55 516.131 2020.23 515.47C2019.93 514.809 2019.51 514.262 2018.96 513.829C2018.42 513.373 2017.78 513.043 2017.05 512.838C2016.34 512.61 2015.58 512.496 2014.76 512.496C2014.08 512.496 2013.38 512.576 2012.67 512.735C2011.97 512.872 2011.27 513.077 2010.59 513.351C2009.91 513.624 2009.26 513.966 2008.64 514.376C2008.05 514.763 2007.51 515.208 2007.04 515.709L2004.03 502.311C2004.87 501.467 2005.84 500.761 2006.93 500.191C2008.03 499.622 2009.18 499.166 2010.38 498.824C2011.59 498.46 2012.82 498.198 2014.08 498.038C2015.33 497.879 2016.56 497.799 2017.77 497.799C2020.46 497.799 2022.96 498.289 2025.29 499.269C2027.61 500.226 2029.63 501.559 2031.34 503.268C2033.07 504.954 2034.42 506.959 2035.4 509.283C2036.41 511.607 2036.91 514.114 2036.91 516.803ZM2072.66 511.402C2070.36 517.851 2068.27 523.696 2066.41 528.937C2065.61 531.17 2064.82 533.38 2064.05 535.567C2063.27 537.732 2062.55 539.715 2061.89 541.515C2061.26 543.292 2060.72 544.796 2060.29 546.026C2059.85 547.257 2059.58 548.02 2059.47 548.316L2041.56 547.291L2057.35 513.316L2038.75 514.342V499.576L2072.66 498.961V511.402Z" fill="#1E1E1E"/>
<path d="M2037.55 729.803C2037.55 731.626 2037.22 733.369 2036.56 735.032C2035.9 736.673 2035.02 738.222 2033.93 739.681C2032.86 741.116 2031.63 742.449 2030.24 743.68C2028.87 744.887 2027.48 745.981 2026.07 746.961H2036.87L2036.05 761.18L2004.05 760.086V747.645C2005.26 747.234 2006.53 746.744 2007.85 746.175C2009.19 745.582 2010.5 744.91 2011.78 744.158C2013.08 743.406 2014.3 742.563 2015.44 741.629C2016.6 740.695 2017.61 739.681 2018.48 738.587C2019.37 737.47 2020.06 736.263 2020.56 734.964C2021.09 733.665 2021.35 732.264 2021.35 730.76C2021.35 729.894 2021.19 729.131 2020.87 728.47C2020.57 727.809 2020.15 727.262 2019.61 726.829C2019.06 726.373 2018.42 726.043 2017.69 725.838C2016.99 725.61 2016.22 725.496 2015.4 725.496C2014.72 725.496 2014.02 725.576 2013.32 725.735C2012.61 725.872 2011.92 726.077 2011.23 726.351C2010.55 726.624 2009.9 726.966 2009.28 727.376C2008.69 727.763 2008.16 728.208 2007.68 728.709L2004.67 715.311C2005.51 714.467 2006.48 713.761 2007.57 713.191C2008.67 712.622 2009.82 712.166 2011.03 711.824C2012.23 711.46 2013.46 711.198 2014.72 711.038C2015.97 710.879 2017.2 710.799 2018.41 710.799C2021.1 710.799 2023.6 711.289 2025.93 712.269C2028.25 713.226 2030.27 714.559 2031.98 716.268C2033.71 717.954 2035.07 719.959 2036.05 722.283C2037.05 724.607 2037.55 727.114 2037.55 729.803ZM2078.36 744.568C2078.36 747.348 2077.87 749.878 2076.89 752.156C2075.91 754.412 2074.56 756.349 2072.82 757.967C2071.11 759.562 2069.07 760.804 2066.71 761.692C2064.34 762.581 2061.77 763.025 2059.01 763.025C2056.76 763.025 2054.72 762.718 2052.9 762.103C2051.1 761.487 2049.48 760.633 2048.04 759.539C2046.63 758.445 2045.41 757.146 2044.39 755.643C2043.36 754.139 2042.51 752.509 2041.82 750.755C2041.16 749 2040.67 747.143 2040.35 745.184C2040.03 743.224 2039.87 741.242 2039.87 739.236C2039.87 736.775 2040.06 734.383 2040.42 732.059C2040.79 729.712 2041.34 727.513 2042.1 725.462C2042.87 723.411 2043.86 721.52 2045.07 719.788C2046.28 718.056 2047.71 716.575 2049.38 715.345C2051.04 714.114 2052.94 713.157 2055.08 712.474C2057.25 711.767 2059.68 711.414 2062.36 711.414C2063.34 711.414 2064.35 711.46 2065.37 711.551C2066.4 711.619 2067.42 711.756 2068.45 711.961C2069.47 712.166 2070.46 712.439 2071.42 712.781C2072.4 713.123 2073.32 713.556 2074.19 714.08L2073.17 727.547C2071.55 726.749 2069.79 726.146 2067.9 725.735C2066.03 725.302 2064.21 725.086 2062.43 725.086C2061.02 725.086 2059.8 725.302 2058.78 725.735C2057.75 726.146 2056.88 726.738 2056.18 727.513C2055.47 728.287 2054.91 729.222 2054.5 730.315C2054.12 731.386 2053.86 732.583 2053.75 733.904C2055.25 733.038 2056.86 732.355 2058.57 731.854C2060.28 731.352 2062.02 731.102 2063.8 731.102C2065.81 731.102 2067.7 731.409 2069.47 732.024C2071.25 732.64 2072.79 733.528 2074.09 734.69C2075.41 735.853 2076.45 737.265 2077.2 738.929C2077.97 740.592 2078.36 742.472 2078.36 744.568ZM2065.37 745.594C2065.37 744.887 2065.21 744.261 2064.89 743.714C2064.6 743.144 2064.2 742.666 2063.7 742.278C2063.22 741.868 2062.66 741.561 2062.02 741.355C2061.38 741.128 2060.75 741.014 2060.11 741.014C2059.47 741.014 2058.84 741.128 2058.23 741.355C2057.61 741.561 2057.06 741.868 2056.55 742.278C2056.08 742.666 2055.68 743.144 2055.36 743.714C2055.06 744.261 2054.91 744.887 2054.91 745.594C2054.91 746.277 2055.06 746.904 2055.36 747.474C2055.68 748.021 2056.08 748.488 2056.55 748.875C2057.06 749.262 2057.61 749.57 2058.23 749.798C2058.84 750.003 2059.47 750.105 2060.11 750.105C2060.75 750.105 2061.38 750.003 2062.02 749.798C2062.66 749.57 2063.22 749.262 2063.7 748.875C2064.2 748.488 2064.6 748.021 2064.89 747.474C2065.21 746.904 2065.37 746.277 2065.37 745.594Z" fill="white"/>
<path d="M2282.17 975.803C2282.17 977.626 2281.83 979.369 2281.17 981.032C2280.51 982.673 2279.64 984.222 2278.54 985.681C2277.47 987.116 2276.24 988.449 2274.85 989.68C2273.48 990.887 2272.09 991.981 2270.68 992.961H2281.48L2280.66 1007.18L2248.67 1006.09V993.645C2249.88 993.234 2251.14 992.744 2252.46 992.175C2253.81 991.582 2255.12 990.91 2256.39 990.158C2257.69 989.406 2258.91 988.563 2260.05 987.629C2261.21 986.695 2262.23 985.681 2263.09 984.587C2263.98 983.47 2264.68 982.263 2265.18 980.964C2265.7 979.665 2265.96 978.264 2265.96 976.76C2265.96 975.894 2265.8 975.131 2265.49 974.47C2265.19 973.809 2264.77 973.262 2264.22 972.829C2263.67 972.373 2263.04 972.043 2262.31 971.838C2261.6 971.61 2260.84 971.496 2260.02 971.496C2259.33 971.496 2258.64 971.576 2257.93 971.735C2257.23 971.872 2256.53 972.077 2255.85 972.351C2255.16 972.624 2254.51 972.966 2253.9 973.376C2253.31 973.763 2252.77 974.208 2252.29 974.709L2249.28 961.311C2250.13 960.467 2251.1 959.761 2252.19 959.191C2253.28 958.622 2254.43 958.166 2255.64 957.824C2256.85 957.46 2258.08 957.198 2259.33 957.038C2260.59 956.879 2261.82 956.799 2263.02 956.799C2265.71 956.799 2268.22 957.289 2270.54 958.269C2272.87 959.226 2274.88 960.559 2276.59 962.268C2278.33 963.954 2279.68 965.959 2280.66 968.283C2281.66 970.607 2282.17 973.114 2282.17 975.803ZM2321.13 980.041C2321.13 982.206 2320.96 984.393 2320.62 986.604C2320.28 988.791 2319.74 990.922 2319.01 992.995C2318.3 995.046 2317.39 996.971 2316.28 998.771C2315.16 1000.57 2313.83 1002.14 2312.28 1003.49C2310.73 1004.81 2308.94 1005.86 2306.91 1006.63C2304.91 1007.41 2302.65 1007.79 2300.14 1007.79C2299.05 1007.79 2297.9 1007.75 2296.69 1007.66C2295.51 1007.54 2294.32 1007.37 2293.14 1007.15C2291.97 1006.89 2290.84 1006.56 2289.72 1006.15C2288.6 1005.72 2287.59 1005.17 2286.68 1004.51L2288.45 991.594C2289.16 992.004 2289.96 992.391 2290.85 992.756C2291.74 993.098 2292.65 993.405 2293.58 993.679C2294.52 993.952 2295.45 994.169 2296.38 994.328C2297.32 994.465 2298.21 994.533 2299.05 994.533C2300.37 994.533 2301.51 994.351 2302.47 993.986C2303.45 993.599 2304.27 993.052 2304.93 992.346C2305.61 991.639 2306.16 990.796 2306.57 989.816C2306.98 988.814 2307.28 987.697 2307.46 986.467C2306.09 987.196 2304.66 987.754 2303.15 988.142C2301.65 988.529 2300.12 988.723 2298.57 988.723C2296.66 988.723 2294.83 988.426 2293.1 987.834C2291.37 987.242 2289.86 986.398 2288.56 985.305C2287.26 984.188 2286.22 982.832 2285.45 981.237C2284.67 979.642 2284.28 977.831 2284.28 975.803C2284.28 973.205 2284.75 970.824 2285.69 968.659C2286.64 966.494 2287.94 964.637 2289.58 963.088C2291.22 961.538 2293.16 960.331 2295.39 959.465C2297.65 958.599 2300.08 958.166 2302.67 958.166C2305.84 958.166 2308.57 958.758 2310.88 959.943C2313.2 961.105 2315.11 962.689 2316.62 964.694C2318.14 966.677 2319.27 968.99 2320 971.633C2320.75 974.276 2321.13 977.079 2321.13 980.041ZM2306.98 975.051C2306.98 974.367 2306.82 973.752 2306.5 973.205C2306.2 972.658 2305.82 972.191 2305.34 971.804C2304.86 971.416 2304.31 971.12 2303.7 970.915C2303.08 970.71 2302.47 970.607 2301.85 970.607C2301.24 970.607 2300.63 970.71 2300.04 970.915C2299.45 971.097 2298.91 971.382 2298.43 971.77C2297.96 972.134 2297.57 972.59 2297.27 973.137C2297 973.661 2296.86 974.253 2296.86 974.914C2296.86 975.575 2297.01 976.179 2297.31 976.726C2297.63 977.272 2298.02 977.74 2298.5 978.127C2298.98 978.514 2299.53 978.822 2300.14 979.05C2300.76 979.255 2301.37 979.357 2301.99 979.357C2302.6 979.357 2303.21 979.255 2303.8 979.05C2304.39 978.845 2304.93 978.56 2305.41 978.195C2305.89 977.808 2306.26 977.352 2306.54 976.828C2306.83 976.304 2306.98 975.712 2306.98 975.051Z" fill="white"/>
<path d="M2299.62 729.803C2299.62 731.626 2299.29 733.369 2298.63 735.032C2297.97 736.673 2297.09 738.222 2296 739.681C2294.92 741.116 2293.69 742.449 2292.3 743.68C2290.94 744.887 2289.55 745.981 2288.13 746.961H2298.93L2298.11 761.18L2266.12 760.086V747.645C2267.33 747.234 2268.59 746.744 2269.92 746.175C2271.26 745.582 2272.57 744.91 2273.85 744.158C2275.15 743.406 2276.36 742.563 2277.5 741.629C2278.67 740.695 2279.68 739.681 2280.55 738.587C2281.43 737.47 2282.13 736.263 2282.63 734.964C2283.15 733.665 2283.42 732.264 2283.42 730.76C2283.42 729.894 2283.26 729.131 2282.94 728.47C2282.64 727.809 2282.22 727.262 2281.67 726.829C2281.13 726.373 2280.49 726.043 2279.76 725.838C2279.05 725.61 2278.29 725.496 2277.47 725.496C2276.79 725.496 2276.09 725.576 2275.38 725.735C2274.68 725.872 2273.98 726.077 2273.3 726.351C2272.62 726.624 2271.97 726.966 2271.35 727.376C2270.76 727.763 2270.22 728.208 2269.75 728.709L2266.74 715.311C2267.58 714.467 2268.55 713.761 2269.64 713.191C2270.74 712.622 2271.89 712.166 2273.09 711.824C2274.3 711.46 2275.53 711.198 2276.79 711.038C2278.04 710.879 2279.27 710.799 2280.48 710.799C2283.17 710.799 2285.67 711.289 2288 712.269C2290.32 713.226 2292.34 714.559 2294.05 716.268C2295.78 717.954 2297.13 719.959 2298.11 722.283C2299.12 724.607 2299.62 727.114 2299.62 729.803ZM2339.85 746.893C2339.85 748.738 2339.6 750.39 2339.1 751.849C2338.59 753.307 2337.9 754.606 2337.01 755.745C2336.14 756.862 2335.11 757.819 2333.9 758.616C2332.72 759.414 2331.41 760.075 2329.97 760.599C2328.56 761.1 2327.06 761.476 2325.49 761.727C2323.92 761.954 2322.32 762.068 2320.71 762.068C2318.41 762.068 2316.13 761.761 2313.87 761.146C2311.64 760.53 2309.62 759.596 2307.82 758.343C2306.04 757.067 2304.6 755.483 2303.48 753.592C2302.39 751.701 2301.84 749.467 2301.84 746.893C2301.84 745.844 2301.97 744.796 2302.22 743.748C2302.47 742.677 2302.83 741.663 2303.31 740.706C2303.79 739.749 2304.39 738.883 2305.12 738.108C2305.85 737.334 2306.69 736.684 2307.65 736.16C2306.15 734.816 2305.02 733.278 2304.27 731.546C2303.51 729.791 2303.14 727.911 2303.14 725.906C2303.14 723.559 2303.65 721.508 2304.68 719.754C2305.72 717.977 2307.08 716.495 2308.74 715.311C2310.43 714.103 2312.32 713.203 2314.42 712.61C2316.51 711.995 2318.61 711.688 2320.71 711.688C2322.1 711.688 2323.49 711.824 2324.88 712.098C2326.29 712.371 2327.65 712.77 2328.94 713.294C2330.24 713.818 2331.45 714.479 2332.57 715.276C2333.71 716.074 2334.69 717.008 2335.51 718.079C2336.35 719.127 2337.01 720.312 2337.49 721.634C2337.97 722.933 2338.21 724.357 2338.21 725.906C2338.21 727.911 2337.83 729.791 2337.08 731.546C2336.33 733.278 2335.2 734.816 2333.7 736.16C2335.88 737.299 2337.46 738.769 2338.41 740.569C2339.37 742.369 2339.85 744.477 2339.85 746.893ZM2326.38 729.188C2326.38 728.436 2326.21 727.763 2325.87 727.171C2325.55 726.556 2325.12 726.032 2324.57 725.599C2324.02 725.166 2323.41 724.835 2322.72 724.607C2322.06 724.38 2321.39 724.266 2320.71 724.266C2320 724.266 2319.31 724.38 2318.62 724.607C2317.94 724.835 2317.32 725.166 2316.78 725.599C2316.23 726.032 2315.79 726.556 2315.44 727.171C2315.12 727.763 2314.96 728.436 2314.96 729.188C2314.96 729.939 2315.12 730.623 2315.44 731.238C2315.79 731.831 2316.23 732.332 2316.78 732.742C2317.32 733.152 2317.94 733.471 2318.62 733.699C2319.31 733.927 2320 734.041 2320.71 734.041C2321.39 734.041 2322.06 733.927 2322.72 733.699C2323.41 733.471 2324.02 733.152 2324.57 732.742C2325.12 732.332 2325.55 731.831 2325.87 731.238C2326.21 730.623 2326.38 729.939 2326.38 729.188ZM2326.31 745.252C2326.31 744.5 2326.14 743.828 2325.8 743.235C2325.48 742.62 2325.06 742.107 2324.54 741.697C2324.01 741.287 2323.41 740.968 2322.72 740.74C2322.06 740.512 2321.39 740.398 2320.71 740.398C2320.02 740.398 2319.34 740.512 2318.66 740.74C2318 740.968 2317.39 741.287 2316.84 741.697C2316.3 742.107 2315.85 742.62 2315.51 743.235C2315.19 743.828 2315.03 744.5 2315.03 745.252C2315.03 745.981 2315.19 746.642 2315.51 747.234C2315.85 747.827 2316.3 748.328 2316.84 748.738C2317.39 749.148 2318 749.467 2318.66 749.695C2319.34 749.923 2320.02 750.037 2320.71 750.037C2321.39 750.037 2322.06 749.923 2322.72 749.695C2323.41 749.467 2324.01 749.148 2324.54 748.738C2325.06 748.328 2325.48 747.827 2325.8 747.234C2326.14 746.642 2326.31 745.981 2326.31 745.252Z" fill="white"/>
<path d="M1782.02 835.803C1782.02 837.626 1781.69 839.369 1781.03 841.032C1780.37 842.673 1779.49 844.222 1778.4 845.681C1777.33 847.116 1776.1 848.449 1774.71 849.68C1773.34 850.887 1771.95 851.981 1770.54 852.961H1781.34L1780.52 867.18L1748.52 866.086V853.645C1749.73 853.234 1751 852.744 1752.32 852.175C1753.66 851.582 1754.97 850.91 1756.25 850.158C1757.55 849.406 1758.77 848.563 1759.91 847.629C1761.07 846.695 1762.08 845.681 1762.95 844.587C1763.84 843.47 1764.53 842.263 1765.03 840.964C1765.56 839.665 1765.82 838.264 1765.82 836.76C1765.82 835.894 1765.66 835.131 1765.34 834.47C1765.04 833.809 1764.62 833.262 1764.08 832.829C1763.53 832.373 1762.89 832.043 1762.16 831.838C1761.45 831.61 1760.69 831.496 1759.87 831.496C1759.19 831.496 1758.49 831.576 1757.79 831.735C1757.08 831.872 1756.38 832.077 1755.7 832.351C1755.02 832.624 1754.37 832.966 1753.75 833.376C1753.16 833.763 1752.62 834.208 1752.15 834.709L1749.14 821.311C1749.98 820.467 1750.95 819.761 1752.04 819.191C1753.14 818.622 1754.29 818.166 1755.5 817.824C1756.7 817.46 1757.93 817.198 1759.19 817.038C1760.44 816.879 1761.67 816.799 1762.88 816.799C1765.57 816.799 1768.07 817.289 1770.4 818.269C1772.72 819.226 1774.74 820.559 1776.45 822.268C1778.18 823.954 1779.54 825.959 1780.52 828.283C1781.52 830.607 1782.02 833.114 1782.02 835.803ZM1819.69 850.773C1819.69 853.736 1819.15 856.311 1818.08 858.498C1817.03 860.686 1815.6 862.497 1813.77 863.933C1811.95 865.368 1809.81 866.439 1807.35 867.146C1804.89 867.852 1802.25 868.205 1799.45 868.205C1798.11 868.205 1796.79 868.114 1795.49 867.932C1794.19 867.727 1792.9 867.465 1791.62 867.146C1790.37 866.804 1789.12 866.416 1787.86 865.983C1786.63 865.55 1785.39 865.083 1784.14 864.582L1785.44 850.979C1786.26 851.434 1787.14 851.856 1788.07 852.243C1789 852.631 1789.96 852.961 1790.94 853.234C1791.94 853.508 1792.95 853.724 1793.95 853.884C1794.97 854.043 1795.96 854.123 1796.92 854.123C1797.49 854.123 1798.19 854.077 1799.01 853.986C1799.83 853.872 1800.61 853.679 1801.37 853.405C1802.12 853.109 1802.76 852.722 1803.28 852.243C1803.83 851.742 1804.1 851.092 1804.1 850.295C1804.1 849.543 1803.88 848.894 1803.45 848.347C1803.04 847.8 1802.49 847.355 1801.81 847.014C1801.15 846.649 1800.4 846.364 1799.55 846.159C1798.71 845.954 1797.86 845.795 1796.99 845.681C1796.15 845.567 1795.34 845.498 1794.56 845.476C1793.81 845.453 1793.18 845.441 1792.68 845.441C1791.66 845.441 1790.61 845.487 1789.54 845.578C1788.49 845.669 1787.47 845.852 1786.46 846.125L1787.83 818.508L1815.52 817.756L1816.27 832.043L1799.11 831.086L1798.77 837.17C1799.79 836.919 1800.82 836.737 1801.84 836.623C1802.87 836.486 1803.89 836.418 1804.92 836.418C1806.99 836.418 1808.92 836.76 1810.7 837.443C1812.5 838.104 1814.06 839.061 1815.38 840.314C1816.72 841.568 1817.77 843.083 1818.52 844.86C1819.3 846.615 1819.69 848.586 1819.69 850.773Z" fill="white"/>
<path d="M1274.01 644.803C1274.01 646.626 1273.68 648.369 1273.02 650.032C1272.36 651.673 1271.48 653.222 1270.39 654.681C1269.32 656.116 1268.09 657.449 1266.7 658.68C1265.33 659.887 1263.94 660.981 1262.53 661.961H1273.33L1272.51 676.18L1240.51 675.086V662.645C1241.72 662.234 1242.99 661.744 1244.31 661.175C1245.65 660.582 1246.96 659.91 1248.24 659.158C1249.54 658.406 1250.76 657.563 1251.9 656.629C1253.06 655.695 1254.07 654.681 1254.94 653.587C1255.83 652.47 1256.52 651.263 1257.02 649.964C1257.55 648.665 1257.81 647.264 1257.81 645.76C1257.81 644.894 1257.65 644.131 1257.33 643.47C1257.03 642.809 1256.61 642.262 1256.07 641.829C1255.52 641.373 1254.88 641.043 1254.15 640.838C1253.44 640.61 1252.68 640.496 1251.86 640.496C1251.18 640.496 1250.48 640.576 1249.78 640.735C1249.07 640.872 1248.38 641.077 1247.69 641.351C1247.01 641.624 1246.36 641.966 1245.74 642.376C1245.15 642.763 1244.62 643.208 1244.14 643.709L1241.13 630.311C1241.97 629.467 1242.94 628.761 1244.03 628.191C1245.13 627.622 1246.28 627.166 1247.49 626.824C1248.69 626.46 1249.92 626.198 1251.18 626.038C1252.43 625.879 1253.66 625.799 1254.87 625.799C1257.56 625.799 1260.06 626.289 1262.39 627.269C1264.71 628.226 1266.73 629.559 1268.44 631.268C1270.17 632.954 1271.53 634.959 1272.51 637.283C1273.51 639.607 1274.01 642.114 1274.01 644.803ZM1300.88 627.85L1298.89 676.453L1283.99 675.77L1284.81 643.436L1279.34 647.195L1274.21 635.506L1285.36 627.166L1300.88 627.85Z" fill="white"/>
<path d="M651.585 722.85L649.603 771.453L634.7 770.77L635.521 738.436L630.052 742.195L624.925 730.506L636.067 722.166L651.585 722.85ZM690.892 744.041C690.892 746.206 690.721 748.393 690.379 750.604C690.037 752.791 689.502 754.922 688.772 756.995C688.066 759.046 687.155 760.971 686.038 762.771C684.922 764.572 683.589 766.144 682.039 767.488C680.49 768.81 678.701 769.858 676.673 770.633C674.668 771.408 672.412 771.795 669.905 771.795C668.812 771.795 667.661 771.749 666.453 771.658C665.268 771.544 664.083 771.373 662.898 771.146C661.736 770.895 660.597 770.564 659.48 770.154C658.364 769.721 657.35 769.174 656.438 768.514L658.216 755.594C658.922 756.004 659.72 756.391 660.608 756.756C661.497 757.098 662.409 757.405 663.343 757.679C664.277 757.952 665.211 758.169 666.146 758.328C667.08 758.465 667.968 758.533 668.812 758.533C670.133 758.533 671.272 758.351 672.229 757.986C673.209 757.599 674.03 757.052 674.69 756.346C675.374 755.639 675.921 754.796 676.331 753.816C676.741 752.814 677.037 751.697 677.22 750.467C675.853 751.196 674.417 751.754 672.913 752.142C671.409 752.529 669.882 752.723 668.333 752.723C666.419 752.723 664.596 752.426 662.864 751.834C661.132 751.242 659.617 750.398 658.318 749.305C657.02 748.188 655.983 746.832 655.208 745.237C654.433 743.642 654.046 741.831 654.046 739.803C654.046 737.205 654.513 734.824 655.447 732.659C656.404 730.494 657.703 728.637 659.344 727.088C660.984 725.538 662.921 724.331 665.154 723.465C667.41 722.599 669.837 722.166 672.435 722.166C675.602 722.166 678.336 722.758 680.638 723.943C682.962 725.105 684.876 726.689 686.38 728.694C687.907 730.677 689.035 732.99 689.764 735.633C690.516 738.276 690.892 741.079 690.892 744.041ZM676.741 739.051C676.741 738.367 676.582 737.752 676.263 737.205C675.966 736.658 675.579 736.191 675.101 735.804C674.622 735.416 674.075 735.12 673.46 734.915C672.845 734.71 672.229 734.607 671.614 734.607C670.999 734.607 670.395 734.71 669.803 734.915C669.21 735.097 668.675 735.382 668.196 735.77C667.718 736.134 667.33 736.59 667.034 737.137C666.761 737.661 666.624 738.253 666.624 738.914C666.624 739.575 666.772 740.179 667.068 740.726C667.387 741.272 667.786 741.74 668.265 742.127C668.743 742.514 669.29 742.822 669.905 743.05C670.521 743.255 671.136 743.357 671.751 743.357C672.366 743.357 672.97 743.255 673.562 743.05C674.155 742.845 674.69 742.56 675.169 742.195C675.647 741.808 676.023 741.352 676.297 740.828C676.593 740.304 676.741 739.712 676.741 739.051Z" fill="white"/>
<path d="M864.328 829.85L862.346 878.453L847.443 877.77L848.264 845.436L842.795 849.195L837.668 837.506L848.811 829.166L864.328 829.85ZM900.422 841.402C898.12 847.851 896.035 853.696 894.167 858.937C893.369 861.17 892.583 863.38 891.809 865.567C891.034 867.732 890.316 869.715 889.655 871.515C889.017 873.292 888.482 874.796 888.049 876.026C887.616 877.257 887.342 878.02 887.229 878.316L869.318 877.291L885.109 843.316L866.516 844.342V829.576L900.422 828.961V841.402Z" fill="#1E1E1E"/>
</svg>
